<svg width="17" height="18" viewBox="0 0 17 18" fill="none" xmlns="http://www.w3.org/2000/svg">
<path d="M15.9865 12.2921C16.2438 12.4208 16.4368 12.7103 16.4368 13.0319C16.4368 13.0641 16.4368 13.1284 16.4368 13.1927L15.6649 16.538C15.5684 16.8918 15.2789 17.117 14.925 17.117C6.65844 17.117 0.00012207 10.4587 0.00012207 2.19205C0.00012207 1.83823 0.225283 1.54874 0.579106 1.45224L3.92435 0.680259C3.98868 0.680259 4.05301 0.648093 4.08518 0.648093C4.40683 0.648093 4.69633 0.841088 4.82499 1.13058L6.36895 4.73315C6.40111 4.82965 6.43328 4.92614 6.43328 5.02264C6.43328 5.27997 6.30462 5.50513 6.14379 5.63379L4.18167 7.24208C5.37181 9.75101 7.36609 11.7453 9.87502 12.9354L11.4833 10.9733C11.612 10.8125 11.8371 10.6838 12.0623 10.6838C12.191 10.6838 12.2875 10.716 12.3839 10.7481L15.9865 12.2921Z" fill="#666666"/>
</svg>
