<svg width="25" height="24" viewBox="0 0 25 24" fill="none" xmlns="http://www.w3.org/2000/svg">
<g clip-path="url(#clip0_556_29512)">
<path d="M24.2623 12.2763C24.2623 11.4605 24.1962 10.6404 24.0551 9.83789H12.7363V14.4589H19.2181C18.9491 15.9492 18.0849 17.2676 16.8194 18.1054V21.1037H20.6864C22.9572 19.0137 24.2623 15.9272 24.2623 12.2763Z" fill="#0A77FF"/>
<path d="M12.7372 24.0003C15.9736 24.0003 18.703 22.9377 20.6916 21.1034L16.8246 18.1051C15.7487 18.837 14.3598 19.2515 12.7416 19.2515C9.61096 19.2515 6.95653 17.1394 6.00412 14.2998H2.01367V17.3907C4.05078 21.4429 8.19997 24.0003 12.7372 24.0003Z" fill="#34A853"/>
<path d="M5.99887 14.3002C5.4962 12.8099 5.4962 11.196 5.99887 9.70569V6.61475H2.01283C0.310827 10.0055 0.310827 14.0004 2.01283 17.3912L5.99887 14.3002Z" fill="#FBBC04"/>
<path d="M12.7372 4.74966C14.448 4.7232 16.1015 5.36697 17.3405 6.54867L20.7666 3.12262C18.5972 1.0855 15.7179 -0.034466 12.7372 0.000808666C8.19997 0.000808666 4.05078 2.55822 2.01367 6.61481L5.99971 9.70575C6.94772 6.86173 9.60654 4.74966 12.7372 4.74966Z" fill="#EA4335"/>
</g>
<defs>
<clipPath id="clip0_556_29512">
<rect width="24" height="24" fill="white" transform="translate(0.5)"/>
</clipPath>
</defs>
</svg>
