<svg width="25" height="25" viewBox="0 0 25 25" fill="none" xmlns="http://www.w3.org/2000/svg">
<path fill-rule="evenodd" clip-rule="evenodd" d="M1.62634 12.0487C1.62634 7.438 1.62634 5.13265 2.72504 3.47216C3.21566 2.73068 3.85067 2.09566 4.59216 1.60504C6.25264 0.506348 8.558 0.506348 13.1687 0.506348C17.7794 0.506348 20.0848 0.506348 21.7453 1.60504C22.4868 2.09566 23.1218 2.73068 23.6124 3.47216C24.7111 5.13264 24.7111 7.438 24.7111 12.0487V12.0487V12.0487C24.7111 16.6594 24.7111 18.9648 23.6124 20.6253C23.1218 21.3668 22.4868 22.0018 21.7453 22.4924C20.0848 23.5911 17.7794 23.5911 13.1687 23.5911H13.1687H13.1687C8.55799 23.5911 6.25264 23.5911 4.59216 22.4924C3.85067 22.0018 3.21566 21.3668 2.72504 20.6253C1.62634 18.9648 1.62634 16.6594 1.62634 12.0487ZM19.1441 12.0492C19.1441 15.3494 16.4687 18.0248 13.1685 18.0248C9.86825 18.0248 7.19287 15.3494 7.19287 12.0492C7.19287 8.74894 9.86825 6.07356 13.1685 6.07356C16.4687 6.07356 19.1441 8.74894 19.1441 12.0492ZM13.1685 16.0031C15.3522 16.0031 17.1224 14.2329 17.1224 12.0492C17.1224 9.8655 15.3522 8.09527 13.1685 8.09527C10.9848 8.09527 9.21459 9.8655 9.21459 12.0492C9.21459 14.2329 10.9848 16.0031 13.1685 16.0031ZM19.3801 7.17719C20.1556 7.17719 20.7842 6.54856 20.7842 5.7731C20.7842 4.99764 20.1556 4.369 19.3801 4.369C18.6047 4.369 17.976 4.99764 17.976 5.7731C17.976 6.54856 18.6047 7.17719 19.3801 7.17719Z" fill="white" fill-opacity="0.8"/>
</svg>
