<svg width="25" height="24" viewBox="0 0 25 24" fill="none" xmlns="http://www.w3.org/2000/svg">
<path d="M1.20828 4.25162C1.20828 3.51135 1.46825 2.90065 1.98817 2.4195C2.50809 1.93833 3.18401 1.69775 4.01589 1.69775C4.83292 1.69775 5.49396 1.93462 5.99904 2.4084C6.51896 2.89696 6.77893 3.53356 6.77893 4.31824C6.77893 5.02888 6.5264 5.62107 6.02132 6.09485C5.5014 6.58341 4.81806 6.8277 3.97132 6.8277H3.94904C3.132 6.8277 2.47097 6.58341 1.96589 6.09485C1.46081 5.60628 1.20828 4.99187 1.20828 4.25162ZM1.49796 23.6832V8.84858H6.44469V23.6832H1.49796ZM9.18544 23.6832H14.1322V15.3998C14.1322 14.8816 14.1916 14.4819 14.3104 14.2006C14.5184 13.6972 14.8341 13.2716 15.2574 12.9237C15.6808 12.5757 16.2119 12.4018 16.8506 12.4018C18.5144 12.4018 19.3463 13.5196 19.3463 15.7551V23.6832H24.293V15.1777C24.293 12.9866 23.7731 11.3247 22.7332 10.1921C21.6934 9.05955 20.3193 8.49326 18.611 8.49326C16.6947 8.49326 15.2017 9.31494 14.1322 10.9583V11.0027H14.1099L14.1322 10.9583V8.84858H9.18544C9.21515 9.32234 9.23001 10.7954 9.23001 13.2679C9.23001 15.7403 9.21515 19.2121 9.18544 23.6832Z" fill="white" fill-opacity="0.8"/>
</svg>
