<svg width="13" height="17" viewBox="0 0 13 17" fill="none" xmlns="http://www.w3.org/2000/svg">
<path d="M5.53264 16.4929C0.836432 9.7381 0.00012207 9.03046 0.00012207 6.52153C0.00012207 3.11195 2.73421 0.345695 6.17595 0.345695C9.58553 0.345695 12.3518 3.11195 12.3518 6.52153C12.3518 9.03046 11.4833 9.7381 6.7871 16.4929C6.49761 16.9432 5.82213 16.9432 5.53264 16.4929ZM6.17595 9.09479C7.59125 9.09479 8.74922 7.96899 8.74922 6.52153C8.74922 5.10623 7.59125 3.94826 6.17595 3.94826C4.72849 3.94826 3.60269 5.10623 3.60269 6.52153C3.60269 7.96899 4.72849 9.09479 6.17595 9.09479Z" fill="#666666"/>
</svg>
