<svg width="106" height="29" viewBox="0 0 106 29" fill="none" xmlns="http://www.w3.org/2000/svg">
<g clip-path="url(#clip0_86_132)">
<g clip-path="url(#clip1_86_132)">
<path fill-rule="evenodd" clip-rule="evenodd" d="M20.0754 11.7974H11.9741V25.9951H20.0754V11.7974ZM20.0754 10.1129V4.2415L1.87015 10.0274V25.9951H10.2897V10.1129H20.0754ZM21.7605 11.7974V25.9951H27.7521V11.7974H21.7605ZM21.7605 10.1129H29.4365V27.6793H0.185669V8.79919L21.7605 1.94287V10.1129Z" fill="#0D0D0D"/>
<path d="M45.8548 23.3003V8.34474H49.0168V20.6933H55.4284V23.3003H45.8548ZM71.4545 15.8225C71.4545 17.4534 71.1454 18.8409 70.5271 19.985C69.9137 21.129 69.0764 22.0029 68.0151 22.6066C66.9586 23.2054 65.7707 23.5048 64.4514 23.5048C63.1224 23.5048 61.9296 23.2029 60.8732 22.5993C59.8168 21.9956 58.9818 21.1217 58.3684 19.9776C57.755 18.8336 57.4483 17.4485 57.4483 15.8225C57.4483 14.1916 57.755 12.8041 58.3684 11.6601C58.9818 10.516 59.8168 9.64459 60.8732 9.04578C61.9296 8.44211 63.1224 8.14027 64.4514 8.14027C65.7707 8.14027 66.9586 8.44211 68.0151 9.04578C69.0764 9.64459 69.9137 10.516 70.5271 11.6601C71.1454 12.8041 71.4545 14.1916 71.4545 15.8225ZM68.2487 15.8225C68.2487 14.7661 68.0905 13.8752 67.7741 13.1498C67.4625 12.4244 67.0219 11.8743 66.4523 11.4994C65.8827 11.1246 65.2158 10.9371 64.4514 10.9371C63.6871 10.9371 63.0201 11.1246 62.4505 11.4994C61.8809 11.8743 61.4379 12.4244 61.1215 13.1498C60.8099 13.8752 60.6541 14.7661 60.6541 15.8225C60.6541 16.8789 60.8099 17.7699 61.1215 18.4952C61.4379 19.2206 61.8809 19.7707 62.4505 20.1456C63.0201 20.5205 63.6871 20.7079 64.4514 20.7079C65.2158 20.7079 65.8827 20.5205 66.4523 20.1456C67.0219 19.7707 67.4625 19.2206 67.7741 18.4952C68.0905 17.7699 68.2487 16.8789 68.2487 15.8225ZM84.4848 13.179C84.3825 12.8236 84.2389 12.5096 84.0539 12.237C83.8689 11.9595 83.6426 11.7258 83.3748 11.5359C83.1119 11.3412 82.8101 11.1927 82.4693 11.0905C82.1334 10.9883 81.7609 10.9371 81.352 10.9371C80.5877 10.9371 79.9158 11.127 79.3365 11.5067C78.762 11.8865 78.3142 12.439 77.9928 13.1644C77.6715 13.8849 77.5109 14.7661 77.5109 15.8079C77.5109 16.8497 77.6691 17.7358 77.9855 18.466C78.302 19.1963 78.7499 19.7537 79.3292 20.1383C79.9085 20.518 80.5925 20.7079 81.3812 20.7079C82.0969 20.7079 82.7078 20.5813 83.2141 20.3282C83.7253 20.0701 84.1148 19.7075 84.3825 19.2401C84.6552 18.7727 84.7915 18.2202 84.7915 17.5824L85.4341 17.6774H81.5784V15.2967H87.8366V17.1808C87.8366 18.4952 87.5591 19.6247 87.0042 20.5692C86.4492 21.5087 85.6848 22.2341 84.7112 22.7453C83.7375 23.2516 82.6226 23.5048 81.3666 23.5048C79.9645 23.5048 78.7328 23.1956 77.6715 22.5773C76.6102 21.9542 75.7826 21.0706 75.1887 19.9265C74.5996 18.7776 74.3051 17.4145 74.3051 15.8371C74.3051 14.6249 74.4803 13.5441 74.8309 12.5948C75.1862 11.6406 75.6828 10.8325 76.3206 10.1704C76.9583 9.50827 77.7007 9.0044 78.5478 8.65875C79.3949 8.3131 80.3126 8.14027 81.3009 8.14027C82.148 8.14027 82.9367 8.26441 83.6669 8.5127C84.3972 8.75612 85.0446 9.10177 85.6094 9.54966C86.179 9.99754 86.6439 10.5306 87.0042 11.1489C87.3644 11.7623 87.5957 12.439 87.6979 13.179H84.4848ZM104.726 15.8225C104.726 17.4534 104.417 18.8409 103.799 19.985C103.185 21.129 102.348 22.0029 101.287 22.6066C100.23 23.2054 99.0425 23.5048 97.7232 23.5048C96.3941 23.5048 95.2014 23.2029 94.1449 22.5993C93.0885 21.9956 92.2536 21.1217 91.6402 19.9776C91.0267 18.8336 90.72 17.4485 90.72 15.8225C90.72 14.1916 91.0267 12.8041 91.6402 11.6601C92.2536 10.516 93.0885 9.64459 94.1449 9.04578C95.2014 8.44211 96.3941 8.14027 97.7232 8.14027C99.0425 8.14027 100.23 8.44211 101.287 9.04578C102.348 9.64459 103.185 10.516 103.799 11.6601C104.417 12.8041 104.726 14.1916 104.726 15.8225ZM101.52 15.8225C101.52 14.7661 101.362 13.8752 101.046 13.1498C100.734 12.4244 100.294 11.8743 99.724 11.4994C99.1544 11.1246 98.4875 10.9371 97.7232 10.9371C96.9588 10.9371 96.2919 11.1246 95.7223 11.4994C95.1527 11.8743 94.7096 12.4244 94.3932 13.1498C94.0816 13.8752 93.9258 14.7661 93.9258 15.8225C93.9258 16.8789 94.0816 17.7699 94.3932 18.4952C94.7096 19.2206 95.1527 19.7707 95.7223 20.1456C96.2919 20.5205 96.9588 20.7079 97.7232 20.7079C98.4875 20.7079 99.1544 20.5205 99.724 20.1456C100.294 19.7707 100.734 19.2206 101.046 18.4952C101.362 17.7699 101.52 16.8789 101.52 15.8225Z" fill="#0D0D0D"/>
</g>
</g>
<defs>
<clipPath id="clip0_86_132">
<rect width="106" height="29" fill="white"/>
</clipPath>
<clipPath id="clip1_86_132">
<rect width="191.93" height="29.1322" fill="white"/>
</clipPath>
</defs>
</svg>
