<svg width="17" height="13" viewBox="0 0 17 13" fill="none" xmlns="http://www.w3.org/2000/svg">
<path d="M16.1473 4.14081C16.276 4.04431 16.469 4.14081 16.469 4.30164V10.8635C16.469 11.7319 15.7614 12.4074 14.925 12.4074H1.54408C0.675604 12.4074 0.00012207 11.7319 0.00012207 10.8635V4.30164C0.00012207 4.14081 0.160951 4.04431 0.289614 4.14081C1.02943 4.71979 1.96223 5.42744 5.24314 7.80771C5.91863 8.2902 7.07659 9.35167 8.23456 9.35167C9.36037 9.35167 10.5505 8.2902 11.1938 7.80771C14.4747 5.42744 15.4075 4.71979 16.1473 4.14081ZM8.23456 8.2902C7.46258 8.32236 6.40111 7.35739 5.85429 6.9714C1.57625 3.88348 1.25459 3.59399 0.289614 2.82201C0.0966194 2.69335 0.00012207 2.46819 0.00012207 2.21086V1.59971C0.00012207 0.763403 0.675604 0.0557561 1.54408 0.0557561H14.925C15.7614 0.0557561 16.469 0.763403 16.469 1.59971V2.21086C16.469 2.46819 16.3403 2.69335 16.1473 2.82201C15.1824 3.59399 14.8607 3.88348 10.5827 6.9714C10.0358 7.35739 8.97438 8.32236 8.23456 8.2902Z" fill="#666666"/>
</svg>
