<svg width="20" height="21" viewBox="0 0 20 21" fill="none" xmlns="http://www.w3.org/2000/svg">
<path d="M16.8608 9.65577C16.8608 15.0346 11.3516 18.3484 10.2067 18.9795C10.1433 19.0145 10.072 19.0329 9.99961 19.0329C9.92718 19.0329 9.85593 19.0145 9.79251 18.9795C8.64676 18.3484 3.13928 15.0346 3.13928 9.65577C3.13928 5.36779 5.71207 2.36621 10 2.36621C14.288 2.36621 16.8608 5.36779 16.8608 9.65577Z" stroke="white" stroke-opacity="0.8" stroke-width="1.4" stroke-linecap="round" stroke-linejoin="round"/>
<path d="M6.5697 9.22677C6.5697 10.1366 6.93112 11.0091 7.57444 11.6524C8.21776 12.2957 9.09029 12.6571 10.0001 12.6571C10.9099 12.6571 11.7824 12.2957 12.4257 11.6524C13.069 11.0091 13.4305 10.1366 13.4305 9.22677C13.4305 8.31697 13.069 7.44444 12.4257 6.80112C11.7824 6.1578 10.9099 5.79639 10.0001 5.79639C9.09029 5.79639 8.21776 6.1578 7.57444 6.80112C6.93112 7.44444 6.5697 8.31697 6.5697 9.22677V9.22677Z" stroke="white" stroke-opacity="0.8" stroke-width="1.4" stroke-linecap="round" stroke-linejoin="round"/>
</svg>
