<svg width="28" height="20" viewBox="0 0 28 20" fill="none" xmlns="http://www.w3.org/2000/svg">
<path d="M15.1776 19.0001L9.96789 18.9027C8.2811 18.8688 6.59012 18.9365 4.9364 18.585C2.42072 18.0598 2.24251 15.4847 2.05602 13.3247C1.79906 10.288 1.89853 7.19615 2.38345 4.18478C2.65721 2.49508 3.73454 1.48683 5.40059 1.37711C11.0247 0.978933 16.6863 1.02612 22.298 1.21189C22.8906 1.22892 23.4874 1.32199 24.0718 1.42794C26.9565 1.94468 27.0268 4.86284 27.2138 7.31939C27.4003 9.80128 27.3216 12.2959 26.9651 14.7609C26.6792 16.8019 26.132 18.5134 23.8231 18.6786C20.9301 18.8947 18.1035 19.0686 15.2024 19.0132C15.2025 19.0001 15.1859 19.0001 15.1776 19.0001ZM12.1148 13.833C14.2949 12.5538 16.4334 11.296 18.601 10.0254C16.4169 8.74623 14.2824 7.48838 12.1148 6.2178V13.833Z" fill="white" fill-opacity="0.8"/>
</svg>
